HIERARCHY
ROOT Hips
{
  OFFSET 1.44925e-005 102.336 -0.101585
  CHANNELS 6 Xposition Yposition Zposition Zrotation Xrotation Yrotation
  JOINT LeftUpLeg
  {
    OFFSET 8.9458 -8.66707 0.101652
    CHANNELS 3 Zrotation Xrotation Yrotation
    JOINT LeftLeg
    {
      OFFSET 0 -44.4227 1.3727
      CHANNELS 3 Zrotation Xrotation Yrotation
      JOINT LeftFoot
      {
        OFFSET -0.253549 -42.0924 -1.46059
        CHANNELS 3 Zrotation Xrotation Yrotation
        JOINT LeftToes
        {
          OFFSET -0.04 -4.41509 8.4991
          CHANNELS 3 Zrotation Xrotation Yrotation
          End Site
          {
            OFFSET 0.08 -0.047448 9.77979
          }
        }
      }
    }
  }
  JOINT Spine
  {
    OFFSET 0 11.8905 0
    CHANNELS 3 Zrotation Xrotation Yrotation
    JOINT Spine1
    {
      OFFSET 0 25.6574 0.127663
      CHANNELS 3 Zrotation Xrotation Yrotation
      JOINT RightShoulder
      {
        OFFSET -8.99 -0.362252 -0.22
        CHANNELS 3 Zrotation Xrotation Yrotation
        JOINT RightArm
        {
          OFFSET -10.2827 -0.00338 0.322123
          CHANNELS 3 Zrotation Xrotation Yrotation
          JOINT RightForeArm
          {
            OFFSET -26.364 0.099144 -1.42434
            CHANNELS 3 Zrotation Xrotation Yrotation
            JOINT RightHand
            {
              OFFSET -22.0324 0.085362 1.02216
              CHANNELS 3 Zrotation Xrotation Yrotation
              End Site
              {
                OFFSET -13.3284 -0.6 1.50291
              }
            }
          }
        }
      }
      JOINT LeftShoulder1
      {
        OFFSET 8.99 -0.362252 -0.22
        CHANNELS 3 Zrotation Xrotation Yrotation
        JOINT LeftArm
        {
          OFFSET 10.2827 -0.00337999 0.322123
          CHANNELS 3 Zrotation Xrotation Yrotation
          JOINT LeftForeArm
          {
            OFFSET 26.2597 0.099144 -1.42434
            CHANNELS 3 Zrotation Xrotation Yrotation
            JOINT LeftHand
            {
              OFFSET 22.0902 0.085362 1.02216
              CHANNELS 3 Zrotation Xrotation Yrotation
              End Site
              {
                OFFSET 13.419 -0.6 1.50291
              }
            }
          }
        }
      }
      JOINT Head
      {
        OFFSET 0 8.73416 0.011341
        CHANNELS 3 Zrotation Xrotation Yrotation
        End Site
        {
          OFFSET -0.29 12.7742 2.51395
        }
      }
    }
  }
  JOINT RightUpLeg
  {
    OFFSET -8.9458 -8.66707 0.101652
    CHANNELS 3 Zrotation Xrotation Yrotation
    JOINT RightLeg
    {
      OFFSET 0 -44.4227 1.3727
      CHANNELS 3 Zrotation Xrotation Yrotation
      JOINT RightFoot
      {
        OFFSET 0.253549 -42.0924 -1.46059
        CHANNELS 3 Zrotation Xrotation Yrotation
        JOINT RightToes
        {
          OFFSET 0.04 -4.41509 8.4991
          CHANNELS 3 Zrotation Xrotation Yrotation
          End Site
          {
            OFFSET -0.08 -0.137448 9.77979
          }
        }
      }
    }
  }
}
MOTION
Frames:	14
Frame Time:	0.0333333
34.2788 95.9378 2.54625 -17.9504 1.70233 -78.1549 8.76139 3.68321 -3.25142 3.30104 73.5664 17.5463 -8.59045 -6.85491 0.0843422 -1.29309e-009 8.75235e-006 -1.46306e-008 -0.423698 -6.21445 -3.15681 6.26208 6.13075 -2.05095 35.275 1.67034 0.00916696 40.285 -31.3179 5.18013 8.29204 34.5275 5.5623 -12.8874 9.22833 0.993983 -41.7208 3.38104 -3.51814 -29.2267 -13.1939 0.963268 -9.25651 40.5009 -8.47014 5.82328 9.61819 -0.917488 11.0867 13.5894 -16.587 8.73615 2.07831 -8.81684 -1.39248 36.7319 -22.9273 3.82296 -26.1419 0.343967 0.0462048 0.000530889 0.662642 
31.732 96.3258 2.40102 -17.9082 1.33186 -79.0515 6.7466 -0.889967 -3.35345 3.90388 75.8842 17.1685 -8.44997 -9.57751 -0.10223 -1.29309e-009 8.75235e-006 -1.46306e-008 3.07745 -5.87489 -1.71862 2.25581 5.65919 0.110435 34.9437 1.67623 0.0524536 41.9153 -28.5156 10.1035 7.86265 33.8556 7.45158 -13.1459 9.17349 1.37795 -42.1871 3.42508 -3.53603 -26.5477 -18.2058 7.93986 -10.2221 42.2935 -6.20973 5.82328 9.61819 -0.917488 10.628 12.9251 -17.3782 8.3057 4.83819 -9.73574 -1.25559 34.8543 -21.3018 3.9009 -26.7438 0.374977 0.0462048 0.000530889 0.662642 
29.1939 96.6515 2.26459 -17.7917 1.06897 -80.0438 4.96626 -5.13039 -3.58993 3.7966 75.8837 16.1621 -8.78818 -11.2438 -0.226404 -1.29309e-009 8.75235e-006 -1.46306e-008 5.77837 -5.31702 -0.513817 -0.88976 4.90422 1.79705 34.3586 1.66243 0.0706274 42.9066 -25.5948 14.7548 7.42192 33.2291 8.94714 -13.4291 9.12815 1.6432 -42.2505 3.42778 -3.53164 -23.2809 -21.5594 15.7966 -10.3468 42.4533 -5.07287 5.82328 9.61819 -0.917488 9.96282 12.668 -17.4709 7.93326 7.52279 -10.1019 -0.827344 32.8768 -20.2309 3.86312 -27.3118 0.38517 0.0462048 0.000530889 0.662642 
26.648 96.9414 2.11599 -17.6224 0.773869 -81.0032 3.33222 -8.74341 -3.91024 3.14862 73.6737 15.483 -9.03658 -12.9993 -0.365403 -1.29309e-009 8.75235e-006 -1.46306e-008 7.33059 -5.1259 0.452178 -2.95761 4.70591 2.957 33.7541 1.63737 0.0626858 43.3088 -23.0124 19.3916 7.15171 32.2094 10.0468 -13.7092 9.09931 1.749 -42.3935 3.43991 -3.5342 -19.9312 -22.6638 23.5871 -10.1937 40.9048 -4.72372 5.82328 9.61819 -0.917488 9.06091 12.3263 -17.0389 7.5887 10.2536 -9.60949 -0.100868 30.6499 -19.9839 3.76305 -27.7411 0.379635 0.0462048 0.000530889 0.662642 
24.1141 97.1753 1.9763 -17.2909 0.443897 -82.0013 1.89195 -11.7784 -4.08199 2.43515 69.4728 15.3457 -9.36919 -14.4801 -0.496269 -1.29309e-009 8.75235e-006 -1.46306e-008 8.12209 -5.43376 1.30351 -4.3515 4.93899 3.81015 33.3083 1.61528 0.0473691 43.1509 -21.0214 23.9067 7.15571 31.2672 10.577 -13.6558 9.10702 1.70839 -42.5011 3.4465 -3.53096 -17.3524 -22.1732 30.6224 -10.2195 39.5751 -4.44783 5.82328 9.61819 -0.917488 8.12552 12.0349 -16.3832 7.11667 12.7605 -9.0806 0.478356 28.4706 -19.4175 3.85579 -28.0177 0.404856 0.0462048 0.000530889 0.662642 
21.6163 97.3269 1.85511 -16.7516 0.166839 -83.0398 0.77627 -14.395 -3.93164 1.91423 63.7247 15.6829 -9.73044 -14.6483 -0.531882 -1.29309e-009 8.75235e-006 -1.46306e-008 8.49513 -5.96794 2.07451 -5.34645 5.10864 4.44898 32.8992 1.5939 0.0300137 42.8243 -19.6385 28.1095 7.36952 30.9248 10.5583 -13.2239 9.14691 1.58495 -42.2696 3.41633 -3.50517 -15.9654 -21.0949 36.7863 -10.3425 39.8586 -4.04926 5.82328 9.61819 -0.917488 7.25513 11.9865 -15.6206 6.57053 14.8329 -8.82385 0.782572 26.6198 -18.3193 4.23266 -28.263 0.483012 0.0462048 0.000530889 0.662642 
19.1638 97.3899 1.74479 -16.1554 -0.0545692 -83.9229 -0.0931534 -16.4651 -3.65528 1.57437 56.9361 16.1211 -10.0545 -14.0911 -0.505421 -1.29309e-009 8.75235e-006 -1.46306e-008 8.43703 -6.50257 2.69075 -5.91101 5.27463 4.84576 32.3835 1.5635 -0.00150427 42.5269 -18.4505 31.777 7.56909 30.6806 10.5168 -12.8777 9.17512 1.51616 -41.9418 3.3742 -3.46945 -15.3759 -20.0846 41.9364 -10.5031 41.2721 -3.52767 5.82328 9.61819 -0.917488 6.37948 11.9323 -14.7786 6.12796 16.7212 -8.66804 0.941632 24.9078 -17.2944 4.5672 -28.4772 0.553708 0.0462048 0.000530889 0.662642 
16.7406 97.3721 1.65419 -15.6651 -0.278834 -84.5781 -0.894584 -17.7753 -3.5002 1.33147 49.5797 16.3935 -10.6078 -13.76 -0.507693 -1.29309e-009 8.75235e-006 -1.46306e-008 8.08456 -7.0305 3.17311 -6.25162 5.80286 5.12711 31.8877 1.53016 -0.0435507 41.912 -17.0137 34.5923 7.51363 29.6287 11.0761 -12.8773 9.16999 1.56576 -41.9668 3.36336 -3.44323 -15.0551 -19.2037 45.7231 -10.7559 42.6909 -2.94663 5.82328 9.61819 -0.917488 5.60749 11.5484 -14.0356 5.78087 18.7683 -8.56276 1.09682 23.0484 -16.5053 4.62429 -28.5942 0.568939 0.0462048 0.000530889 0.662642 
14.3172 97.3033 1.60962 -15.2512 -0.520573 -85.2256 -1.64184 -18.4368 -3.25709 1.17871 42.305 16.9715 -10.958 -13.347 -0.489223 -1.29309e-009 8.75235e-006 -1.46306e-008 7.7956 -7.52783 3.64049 -6.79672 6.56528 5.4938 31.608 1.50851 -0.0753641 40.7226 -15.2154 36.3606 7.18722 27.6643 12.2933 -12.9199 9.16118 1.62609 -42.2598 3.37613 -3.42441 -14.9695 -18.3819 48.1044 -11.0108 43.8462 -2.5477 5.82328 9.61819 -0.917488 5.15771 10.9309 -13.5286 5.35489 20.9279 -8.5971 1.22342 21.0952 -15.5112 4.6114 -28.6208 0.567465 0.0462048 0.000530889 0.662642 
11.8504 97.1638 1.63699 -14.8097 -0.70291 -86.0015 -2.23934 -18.8718 -2.6031 1.14092 36.1863 18.3283 -10.3651 -12.687 -0.401715 -1.29309e-009 8.75235e-006 -1.46306e-008 7.71272 -7.81086 4.05236 -7.56171 6.97258 5.89264 31.5436 1.49952 -0.0934446 39.3227 -13.2184 37.2363 6.78749 25.5915 13.6582 -12.7851 9.17392 1.58199 -42.3896 3.37798 -3.40831 -15.3027 -17.8315 49.4593 -11.0833 44.9261 -2.5125 5.82328 9.61819 -0.917488 4.95763 10.443 -13.0783 4.85185 22.8726 -8.75997 1.19539 19.518 -14.1608 4.80079 -28.6369 0.604352 0.0462048 0.000530889 0.662642 
9.2708 96.8741 1.75393 -14.3962 -0.757885 -86.7746 -2.70959 -19.3147 -1.81542 1.15882 32.2695 19.8862 -9.5574 -12.6377 -0.361161 -1.29309e-009 8.75235e-006 -1.46306e-008 7.72753 -7.78299 4.25972 -8.20931 6.82531 6.11786 31.6144 1.49746 -0.105269 38.2099 -11.271 37.5196 6.48123 24.1832 14.6842 -12.7422 9.185 1.49908 -42.2942 3.36796 -3.40242 -15.9726 -17.8121 49.9471 -10.9935 45.7597 -2.65897 5.82328 9.61819 -0.917488 4.73107 10.2547 -12.4475 4.4339 24.517 -8.9908 0.966335 18.7646 -12.7287 5.33587 -28.761 0.712528 0.0462048 0.000530889 0.662642 
6.51988 96.4258 1.96935 -14.1494 -0.714478 -87.5306 -3.18169 -19.4647 -1.41275 1.16628 30.6052 20.7197 -9.52839 -13.267 -0.409151 -1.29309e-009 8.75235e-006 -1.46306e-008 7.82516 -7.69296 4.32506 -8.70564 6.65713 6.22289 31.8258 1.50834 -0.0955077 37.5249 -9.63396 37.3401 6.30303 23.6865 15.2081 -12.9567 9.16876 1.53092 -42.2939 3.37222 -3.41117 -16.7226 -18.2477 49.2541 -10.9875 46.173 -2.63692 5.82328 9.61819 -0.917488 4.41927 10.2521 -11.6666 4.02184 26.1105 -9.3285 0.593868 18.7587 -11.1297 6.50008 -29.0692 0.954807 0.0462048 0.000530889 0.662642 
3.57267 95.9059 2.28606 -14.0406 -0.73244 -88.5504 -3.69636 -19.0089 -1.16015 1.16399 30.391 20.8079 -8.92786 -13.1127 -0.370093 -1.29309e-009 8.75235e-006 -1.46306e-008 8.06746 -7.88319 4.45323 -9.26475 6.90529 6.42162 32.1587 1.53706 -0.050039 37.3801 -8.58175 36.7108 6.23054 24.3627 15.1496 -13.0476 9.14784 1.67947 -42.5045 3.40155 -3.43886 -17.5523 -18.8263 47.2653 -11.117 46.3237 -2.48874 5.82328 9.61819 -0.917488 4.17652 10.3307 -10.8076 3.29987 27.751 -9.75341 0.0844494 19.1921 -8.93925 8.39796 -29.4274 1.35353 0.0462048 0.000530889 0.662642 
0.425022 95.3656 2.69779 -13.9381 -0.806134 -89.7177 -4.30485 -18.3345 -0.644499 1.18243 31.3738 20.9392 -5.88001 -11.4503 -0.150439 -1.29309e-009 8.75235e-006 -1.46306e-008 8.23016 -8.25498 4.59773 -9.79518 7.1467 6.61789 32.5073 1.57081 0.00621164 38.1667 -8.44178 35.6829 6.331 26.7796 14.2767 -12.6905 9.15995 1.7761 -42.7345 3.44371 -3.48927 -18.5899 -19.3783 44.476 -11.1308 46.3101 -2.62013 5.82328 9.61819 -0.917488 4.02889 10.5563 -9.72117 2.14426 29.2498 -9.8752 -0.584024 20.0749 -6.47416 10.5174 -29.4563 1.78023 0.0462048 0.000530889 0.662642 
